<svg width="821" height="15" viewBox="0 0 821 15" fill="none" xmlns="http://www.w3.org/2000/svg">
<path d="M661.729 1.56931C684.617 3.14554 696.973 2.97812 720.156 0.775929C732.458 -0.392568 742.591 -0.249434 754.406 1.2605C776.417 4.07262 778.476 4.13563 807.737 2.89973C816.715 2.52073 821.33 2.89028 820.982 3.96099C820.595 5.15159 812.309 7.16482 802.009 8.57089C793.244 9.76701 790.542 9.9206 783.161 9.64105C773.622 9.28028 762.574 8.18415 753.544 6.7035C745.696 5.41677 728.308 5.44055 716.118 6.75435C700.623 8.4245 687.314 8.51624 669.268 7.07814C650.351 5.57042 648.633 5.55766 551.605 6.21677C485.493 6.66539 478.136 6.62507 463.828 5.73281C444.167 4.50686 418.051 4.81128 398.131 6.498C390.726 7.12562 378.731 7.89027 371.475 8.198C364.219 8.50518 349.558 9.1626 338.895 9.65818C321.616 10.4609 314.024 10.4864 269.046 9.89247C241.291 9.52562 218.345 9.37641 218.054 9.56039C217.764 9.74492 199.761 10.135 178.049 10.4278C156.336 10.7206 135.058 11.2057 130.763 11.5051C126.469 11.8051 117.018 12.3101 109.762 12.6272C102.505 12.9449 91.2372 13.451 84.7213 13.7521C63.9819 14.7106 42.2527 15.1234 20.7367 14.9681C1.27089 14.8272 -0.155073 14.7515 0.0113251 13.8632C0.177184 12.9781 2.33443 12.8841 29.8008 12.567C46.0868 12.3786 65.4698 11.9349 72.8742 11.5808C87.8382 10.8653 123.514 8.43996 131.033 7.6267C133.698 7.33831 149.328 6.86706 165.766 6.57866C182.204 6.29082 202.681 5.78478 211.27 5.45495C225.985 4.88921 272.875 5.33445 300.931 6.30627C315.599 6.81455 364.001 4.61404 394.631 2.04666C413.899 0.43176 446.253 0.0621753 463.837 1.25719C479.707 2.33508 522.622 2.42181 599.531 1.53121C639.667 1.06657 654.562 1.07539 661.729 1.56931Z" fill="#E2725B"/>
</svg>
