<svg width="156" height="53" viewBox="0 0 156 53" fill="none" xmlns="http://www.w3.org/2000/svg">
<g filter="url(#filter0_d_2825_1831)">
<g filter="url(#filter1_d_2825_1831)">
<rect x="43.75" y="34.9355" width="106.034" height="2.65123" fill="url(#paint0_linear_2825_1831)"/>
</g>
<mask id="mask0_2825_1831" style="mask-type:luminance" maskUnits="userSpaceOnUse" x="47" y="32" width="103" height="18">
<path d="M149.975 32.9258H47.0273V49.5884H149.975V32.9258Z" fill="white"/>
</mask>
<g mask="url(#mask0_2825_1831)">
<g filter="url(#filter2_d_2825_1831)">
<path d="M57.4535 36.4961V45.8788H56.5877V38.3736L53.2339 44.6872H52.8055L49.4517 38.4137V45.8788H48.5859V36.4961H49.3287L53.0379 43.4505L56.7107 36.4961H57.4535Z" fill="white"/>
<path d="M68.526 43.3704H63.7687L62.7434 45.8788H61.8047L65.7099 36.4961H66.5984L70.5036 45.8788H69.5513L68.526 43.3704ZM68.1979 42.5693L66.1473 37.5275L64.1013 42.5693H68.1979Z" fill="white"/>
<path d="M80.6882 45.8788L78.7333 42.8647C78.5146 42.8923 78.2879 42.9048 78.0543 42.9048H75.7577V45.8788H74.8555V36.4961H78.0543C79.1411 36.4961 79.9933 36.784 80.6107 37.3573C81.2304 37.928 81.5403 38.7141 81.5403 39.7155C81.5403 40.4465 81.3717 41.0661 81.0345 41.573C80.6973 42.0774 80.2154 42.4417 79.59 42.6645L81.677 45.8788H80.6882ZM78.027 42.0587C78.8746 42.0587 79.5216 41.8534 79.9682 41.4428C80.4148 41.0323 80.6381 40.4565 80.6381 39.7155C80.6381 38.9544 80.4148 38.3711 79.9682 37.9631C79.5216 37.5563 78.8746 37.3523 78.027 37.3523H75.7577V42.0587H78.027Z" fill="white"/>
<path d="M89.2608 41.4679L87.5155 43.4105V45.8788H86.6133V36.4961H87.5155V42.1638L92.5326 36.4961H93.567L89.8714 40.7469L93.8221 45.8788H92.7513L89.2608 41.4679Z" fill="white"/>
<path d="M104.264 45.0227V45.8788H98.2266V36.4961H104.082V37.3523H99.1288V40.6918H103.544V41.5379H99.1288V45.0227H104.264Z" fill="white"/>
<path d="M110.987 37.3523H107.988V36.4961H114.892V37.3523H111.889V45.8788H110.987V37.3523Z" fill="white"/>
<path d="M119.266 36.4961H120.169V45.8788H119.266V36.4961Z" fill="white"/>
<path d="M133.027 36.4961V45.8788H132.284L126.793 38.2635V45.8788H125.891V36.4961H126.633L132.138 44.1114V36.4961H133.027Z" fill="white"/>
<path d="M144.76 41.1895H145.625V44.7693C145.227 45.1536 144.755 45.449 144.208 45.6555C143.664 45.8596 143.092 45.9609 142.49 45.9609C141.636 45.9609 140.868 45.7557 140.185 45.3451C139.501 44.9345 138.963 44.3663 138.572 43.6378C138.182 42.9068 137.988 42.0907 137.988 41.1895C137.988 40.2882 138.182 39.4746 138.572 38.7461C138.963 38.0151 139.501 37.4444 140.185 37.0338C140.868 36.6232 141.641 36.418 142.504 36.418C143.153 36.418 143.75 36.5331 144.295 36.7634C144.842 36.9912 145.302 37.3267 145.676 37.7698L145.115 38.4007C144.437 37.6697 143.579 37.3042 142.541 37.3042C141.848 37.3042 141.221 37.4719 140.663 37.8049C140.107 38.1391 139.671 38.6047 139.355 39.2018C139.039 39.7963 138.881 40.4585 138.881 41.1895C138.881 41.9242 139.039 42.5864 139.355 43.1772C139.671 43.7655 140.105 44.2286 140.659 44.569C141.215 44.907 141.837 45.0747 142.527 45.0747C143.404 45.0747 144.149 44.8344 144.76 44.3538V41.1895Z" fill="white"/>
</g>
</g>
<mask id="mask1_2825_1831" style="mask-type:luminance" maskUnits="userSpaceOnUse" x="46" y="6" width="12" height="35">
<path d="M57.5288 6.64844H46.7383V40.6146H57.5288V6.64844Z" fill="white"/>
</mask>
<g mask="url(#mask1_2825_1831)">
<path d="M56.3584 33.0053H47.6641V31.9339C48.2166 31.9176 48.6586 31.8613 48.9901 31.7637C49.3239 31.6635 49.5802 31.4808 49.7602 31.2129C49.939 30.9463 50.0609 30.567 50.1247 30.0764C50.1908 29.5857 50.225 28.9223 50.225 28.0837V17.324C50.225 16.5768 50.1954 15.9572 50.1384 15.4665C50.0803 14.9758 49.9698 14.5891 49.8058 14.3049C49.644 14.0183 49.4139 13.818 49.1131 13.7041C48.8124 13.5877 48.4114 13.5114 47.9101 13.4738V12.4023H56.1169V13.4738C55.6123 13.5114 55.2101 13.5877 54.9094 13.7041C54.6086 13.818 54.3762 14.0183 54.2122 14.3049C54.0504 14.5891 53.9411 14.9758 53.8841 15.4665C53.8294 15.9572 53.8021 16.5768 53.8021 17.324V28.0837C53.8021 28.9223 53.8294 29.5857 53.8841 30.0764C53.9411 30.567 54.063 30.9463 54.2486 31.2129C54.4366 31.4808 54.6964 31.6635 55.0279 31.7637C55.3616 31.8613 55.8048 31.9176 56.3584 31.9339V33.0053Z" fill="white"/>
</g>
<mask id="mask2_2825_1831" style="mask-type:luminance" maskUnits="userSpaceOnUse" x="73" y="6" width="23" height="35">
<path d="M95.1513 6.64844H73.5703V40.6146H95.1513V6.64844Z" fill="white"/>
</mask>
<g mask="url(#mask2_2825_1831)">
<path d="M86.6106 26.7736H79.7208C78.9575 28.6636 78.577 29.9729 78.577 30.7039C78.577 31.2421 78.7593 31.5826 79.1238 31.7253C79.4884 31.8655 80.0363 31.9356 80.7688 31.9356V33.007H74.0977V31.9356C74.4861 31.883 74.8222 31.8129 75.1047 31.7253C75.3895 31.6352 75.6424 31.51 75.8611 31.3498C76.0799 31.1896 76.269 30.9818 76.4307 30.7239C76.5948 30.4636 76.7497 30.1456 76.8955 29.7676L83.3024 12.1387H85.1023L90.9214 27.7649C91.2609 28.6736 91.5479 29.3859 91.7826 29.9028C92.0196 30.421 92.2713 30.8178 92.539 31.0944C92.809 31.3723 93.1189 31.5638 93.4686 31.6702C93.8172 31.7779 94.2672 31.858 94.8175 31.9105V33.007H85.6127V31.9105C86.3931 31.8742 86.9535 31.7854 87.2942 31.6452C87.6336 31.5025 87.8045 31.2146 87.8045 30.784C87.8045 30.5374 87.7464 30.217 87.6314 29.8227C87.5186 29.4297 87.3648 28.9465 87.1711 28.3757L86.6106 26.7736ZM80.2812 25.1664H86.0775L83.2751 17.0604H83.1794L80.2812 25.1664Z" fill="white"/>
</g>
<mask id="mask3_2825_1831" style="mask-type:luminance" maskUnits="userSpaceOnUse" x="96" y="6" width="52" height="35">
<path d="M147.643 6.64844H96.0234V40.6146H147.643V6.64844Z" fill="white"/>
</mask>
<g mask="url(#mask3_2825_1831)">
<path d="M113.903 33.0053H97.125V31.9339C97.6593 31.9176 98.0967 31.8638 98.4374 31.7737C98.7803 31.6835 99.04 31.5321 99.2166 31.318C99.3954 31.1053 99.5173 30.8023 99.5811 30.4118C99.6472 30.0188 99.6814 29.5093 99.6814 28.8847V16.5229C99.6814 15.8996 99.6517 15.3952 99.5948 15.0109C99.5401 14.6279 99.4307 14.325 99.2667 14.1047C99.1049 13.8819 98.8748 13.7291 98.5741 13.649C98.2733 13.5689 97.8792 13.5114 97.3939 13.4738V12.4023H105.797V13.4738C105.243 13.4913 104.8 13.5439 104.466 13.634C104.135 13.7241 103.879 13.8869 103.7 14.1197C103.52 14.35 103.402 14.6704 103.345 15.081C103.29 15.489 103.263 16.0323 103.263 16.7132V27.9234C103.263 28.672 103.331 29.2828 103.468 29.7559C103.607 30.2266 103.847 30.5921 104.188 30.8524C104.528 31.1103 104.982 31.288 105.551 31.3881C106.118 31.4858 106.824 31.5333 107.669 31.5333C108.61 31.5333 109.398 31.472 110.03 31.3481C110.664 31.2217 111.196 30.9851 111.625 30.6371C112.055 30.2904 112.401 29.8235 112.659 29.2352C112.92 28.6444 113.14 27.8771 113.32 26.9321H114.295L113.903 33.0053Z" fill="white"/>
<path d="M115.512 33.0073V31.9358C116.046 31.9196 116.479 31.8708 116.81 31.7906C117.144 31.7105 117.404 31.5591 117.59 31.335C117.778 31.1122 117.904 30.8081 117.968 30.4238C118.034 30.0408 118.068 29.5276 118.068 28.8867V16.5249C118.068 15.9015 118.043 15.3971 117.995 15.0128C117.946 14.6298 117.84 14.3269 117.676 14.1066C117.514 13.8838 117.291 13.7311 117.006 13.651C116.724 13.5709 116.356 13.5133 115.904 13.4758V12.4043H125.154C126.712 12.4043 128.149 12.6734 129.465 13.2104C130.779 13.7449 131.916 14.4846 132.873 15.4284C133.832 16.3734 134.58 17.4962 135.115 18.798C135.649 20.0998 135.917 21.5192 135.917 23.0538C135.917 24.5158 135.664 25.8576 135.161 27.0792C134.659 28.3009 133.958 29.3498 133.055 30.2235C132.155 31.0984 131.075 31.7806 129.816 32.2713C128.558 32.762 127.174 33.0073 125.664 33.0073H115.512ZM122.064 14.0365C121.788 14.0365 121.65 14.1892 121.65 14.4921V28.3259C121.65 29.3611 121.941 30.1284 122.525 30.6291C123.108 31.1272 124.008 31.3751 125.227 31.3751C127.353 31.3751 128.988 30.6716 130.135 29.2622C131.279 27.854 131.852 25.8025 131.852 23.1088C131.852 21.6807 131.697 20.4052 131.388 19.2836C131.08 18.1596 130.633 17.2096 130.048 16.4348C129.465 15.6575 128.755 15.0629 127.92 14.6524C127.084 14.2418 126.147 14.0365 125.108 14.0365H122.064Z" fill="white"/>
<path d="M146.315 33.0073H137.621V31.9358C138.174 31.9196 138.616 31.8632 138.947 31.7656C139.281 31.6655 139.537 31.4827 139.717 31.2149C139.896 30.9482 140.018 30.569 140.082 30.0783C140.148 29.5876 140.182 28.9242 140.182 28.0856V17.326C140.182 16.5787 140.152 15.9591 140.095 15.4685C140.037 14.9778 139.927 14.591 139.763 14.3069C139.601 14.0202 139.371 13.82 139.07 13.7061C138.769 13.5897 138.368 13.5133 137.867 13.4758V12.4043H146.074V13.4758C145.569 13.5133 145.167 13.5897 144.866 13.7061C144.566 13.82 144.333 14.0202 144.169 14.3069C144.007 14.591 143.898 14.9778 143.841 15.4685C143.786 15.9591 143.759 16.5787 143.759 17.326V28.0856C143.759 28.9242 143.786 29.5876 143.841 30.0783C143.898 30.569 144.02 30.9482 144.206 31.2149C144.394 31.4827 144.653 31.6655 144.985 31.7656C145.319 31.8632 145.762 31.9196 146.315 31.9358V33.0073Z" fill="white"/>
</g>
<mask id="mask4_2825_1831" style="mask-type:luminance" maskUnits="userSpaceOnUse" x="57" y="6" width="22" height="35">
<path d="M78.8193 6.64844H57.2383V40.6146H78.8193V6.64844Z" fill="white"/>
</mask>
<g mask="url(#mask4_2825_1831)">
<mask id="mask5_2825_1831" style="mask-type:luminance" maskUnits="userSpaceOnUse" x="57" y="12" width="22" height="22">
<path d="M57.8203 12.0957H78.7247V33.5649H57.8203V12.0957Z" fill="white"/>
</mask>
<g mask="url(#mask5_2825_1831)">
<path d="M69.3536 28.406L72.516 19.4939C72.8259 18.6202 73.0731 17.9068 73.2588 17.356C73.4468 16.8028 73.5892 16.3472 73.6871 15.9892C73.784 15.6324 73.8477 15.347 73.8785 15.133C73.9115 14.9202 73.9286 14.7149 73.9286 14.5172C73.9286 14.0903 73.7828 13.81 73.4912 13.676C73.1995 13.5433 72.614 13.4758 71.7368 13.4758V12.4043H78.654V13.4758C77.3075 13.4758 76.3756 14.1992 75.8562 15.6437L69.4493 33.2727H67.6494L61.8258 17.6514C61.4999 16.8103 61.2072 16.1231 60.9463 15.5886C60.6877 15.0554 60.4131 14.6323 60.1215 14.3219C59.8299 14.009 59.5086 13.7937 59.16 13.676C58.8103 13.5596 58.4013 13.5008 57.9297 13.5008V12.4043H67.1344V13.5008C66.7118 13.5208 66.3575 13.5496 66.0727 13.5859C65.7902 13.6197 65.568 13.676 65.4074 13.7561C65.2456 13.8362 65.1317 13.9439 65.0656 14.0766C65.0019 14.2105 64.97 14.3757 64.97 14.5722C64.97 14.8226 65.0087 15.118 65.0884 15.4584C65.1705 15.7964 65.2935 16.2045 65.4575 16.6851L69.3536 28.406Z" fill="white"/>
</g>
</g>
<mask id="mask6_2825_1831" style="mask-type:luminance" maskUnits="userSpaceOnUse" x="1" y="1" width="32" height="47">
<path d="M1.97656 1.8418H32.4479V47.0232H1.97656V1.8418Z" fill="white"/>
</mask>
<g mask="url(#mask6_2825_1831)">
<path d="M21.8779 4.67181C20.692 6.14757 20.4927 8.29048 21.3004 10.0479L26.0907 20.4595L31.2547 31.6898C31.5429 32.3695 33.1891 36.4387 31.4928 40.9999C30.0938 44.7563 27.321 46.4548 26.5475 46.8917L9.94479 10.8114C9.61556 10.0904 9.28405 9.3682 8.95141 8.64471C8.95141 8.64471 8.95141 8.64471 8.95141 8.63595C8.95141 8.63345 8.95141 8.62969 8.95141 8.62719C8.5618 7.79356 8.11979 6.99372 7.62424 6.23143C7.32349 5.75954 6.97831 5.33146 6.58643 4.94719C6.19568 4.56417 5.76962 4.23497 5.30938 3.95959C4.848 3.68422 4.36498 3.47143 3.85918 3.31872C3.35337 3.16727 2.83845 3.0809 2.31442 3.06087C2.20961 3.06087 2.10481 3.06087 2 3.06087V2.13086H25.2409V3.05587C23.8351 3.05587 22.6799 3.6717 21.8779 4.67181Z" fill="white"/>
</g>
<path d="M34.0454 9.91701L29.0898 20.6866C30.8066 24.4418 31.4936 25.8975 31.7841 26.497C31.8399 26.611 32.0449 27.0303 32.3081 27.6086C32.3833 27.775 32.6259 28.307 32.8617 28.8765C33.1978 29.6864 33.5065 30.515 33.641 30.9606C34.0431 32.3212 34.2071 33.7169 34.1354 35.1451L45.3998 10.6831C45.3998 10.6831 45.6538 10.1336 46.3966 8.51636C46.3966 8.51636 46.3966 8.51636 46.3966 8.5076C46.3966 8.50509 46.3966 8.50134 46.3966 8.49883C46.7828 7.6652 47.2225 6.86661 47.7146 6.10308C48.0143 5.63119 48.3606 5.2031 48.7513 4.81883C49.1432 4.43581 49.5693 4.10661 50.0295 3.83124C50.4897 3.55586 50.9739 3.34308 51.4797 3.19037C51.9855 3.03891 52.5004 2.95254 53.0233 2.93252C53.1293 2.93252 53.2341 2.93252 53.3377 2.93252V2H30.1037V2.92376C31.5095 2.92376 32.6647 3.53959 33.4667 4.5397C34.6514 6.01546 34.8519 8.15837 34.0431 9.91576L34.0454 9.91701Z" fill="white"/>
</g>
<defs>
<filter id="filter0_d_2825_1831" x="0" y="0" width="155.785" height="52.8926" filterUnits="userSpaceOnUse" color-interpolation-filters="sRGB">
<feFlood flood-opacity="0" result="BackgroundImageFix"/>
<feColorMatrix in="SourceAlpha" type="matrix" values="0 0 0 0 0 0 0 0 0 0 0 0 0 0 0 0 0 0 127 0" result="hardAlpha"/>
<feOffset dx="2" dy="2"/>
<feGaussianBlur stdDeviation="2"/>
<feComposite in2="hardAlpha" operator="out"/>
<feColorMatrix type="matrix" values="0 0 0 0 0.0627451 0 0 0 0 0 0 0 0 0 0.168627 0 0 0 1 0"/>
<feBlend mode="normal" in2="BackgroundImageFix" result="effect1_dropShadow_2825_1831"/>
<feBlend mode="normal" in="SourceGraphic" in2="effect1_dropShadow_2825_1831" result="shape"/>
</filter>
<filter id="filter1_d_2825_1831" x="41.75" y="34.9355" width="110.035" height="6.65039" filterUnits="userSpaceOnUse" color-interpolation-filters="sRGB">
<feFlood flood-opacity="0" result="BackgroundImageFix"/>
<feColorMatrix in="SourceAlpha" type="matrix" values="0 0 0 0 0 0 0 0 0 0 0 0 0 0 0 0 0 0 127 0" result="hardAlpha"/>
<feOffset dy="2"/>
<feGaussianBlur stdDeviation="1"/>
<feComposite in2="hardAlpha" operator="out"/>
<feColorMatrix type="matrix" values="0 0 0 0 0 0 0 0 0 0 0 0 0 0 0 0 0 0 1 0"/>
<feBlend mode="normal" in2="BackgroundImageFix" result="effect1_dropShadow_2825_1831"/>
<feBlend mode="normal" in="SourceGraphic" in2="effect1_dropShadow_2825_1831" result="shape"/>
</filter>
<filter id="filter2_d_2825_1831" x="46.5859" y="36.418" width="101.09" height="13.543" filterUnits="userSpaceOnUse" color-interpolation-filters="sRGB">
<feFlood flood-opacity="0" result="BackgroundImageFix"/>
<feColorMatrix in="SourceAlpha" type="matrix" values="0 0 0 0 0 0 0 0 0 0 0 0 0 0 0 0 0 0 127 0" result="hardAlpha"/>
<feOffset dy="2"/>
<feGaussianBlur stdDeviation="1"/>
<feComposite in2="hardAlpha" operator="out"/>
<feColorMatrix type="matrix" values="0 0 0 0 0 0 0 0 0 0 0 0 0 0 0 0 0 0 1 0"/>
<feBlend mode="normal" in2="BackgroundImageFix" result="effect1_dropShadow_2825_1831"/>
<feBlend mode="normal" in="SourceGraphic" in2="effect1_dropShadow_2825_1831" result="shape"/>
</filter>
<linearGradient id="paint0_linear_2825_1831" x1="43.75" y1="36.2612" x2="149.784" y2="36.2612" gradientUnits="userSpaceOnUse">
<stop stop-color="#6947D2"/>
<stop offset="1" stop-color="#FF8971"/>
</linearGradient>
</defs>
</svg>
